<svg viewBox="0 0 82.04 82.04" xmlns="http://www.w3.org/2000/svg" xmlns:xlink="http://www.w3.org/1999/xlink"><pattern id="a" height="77.43" patternTransform="matrix(.32 0 0 .32 99.08 714.08)" patternUnits="userSpaceOnUse" viewBox="0 0 77.43 77.43" width="77.43"><path d="m0 0h77.43v77.43h-77.43z" fill="none"/><path d="m0 0h77.43v77.43h-77.43z" fill="#010101"/></pattern><pattern id="b" height="77.43" patternTransform="matrix(.32 0 0 .32 128.06 758.97)" patternUnits="userSpaceOnUse" viewBox="0 0 77.43 77.43" width="77.43"><path d="m0 0h77.43v77.43h-77.43z" fill="none"/><path d="m0 0h77.43v77.43h-77.43z" fill="#010101"/></pattern><clipPath id="c"><path d="m29.53 31.48 12.07-7.01 11.04 6.38-12.06 7.01z"/></clipPath><clipPath id="d"><path d="m37.31 35.86a1.43 1.43 0 0 1 -.68-.3h.21c1-.2 1.9-.43 2.84-.66s1.87-.48 2.78-.75 1.82-.54 2.69-.86c-.8.12-1.57.26-2.33.42l-.6.12c-1 .21-1.9.43-2.84.67l-1.23.31-1.55.43-.19.06a.46.46 0 0 1 .07-.46 2.34 2.34 0 0 1 -.4-.11l.2-.11.85-.45c.66-.35 1.31-.72 1.95-1.09l.71-.41c.65-.4 1.3-.8 1.93-1.21a29.73 29.73 0 0 0 2.45-1.73c-1 .44-2 .93-3 1.42l-1.44.78c-.46.25-.91.5-1.35.76s-1.07.63-1.6 1l-1 .67-.18.12a1 1 0 0 1 -.25-.35 2.34 2.34 0 0 1 -.59 0l.12-.12c.19-.22.37-.45.55-.67l.87-1.12c.44-.6.86-1.2 1.24-1.81a14 14 0 0 0 1-1.89 20.58 20.58 0 0 0 -1.65 1.74c-.5.59-1 1.19-1.42 1.79s-.88 1.22-1.26 1.84a.6.6 0 0 0 -.09.13 1.11 1.11 0 0 1 -.56-.43c-1.65-3.07 1.06-6.18 6.57-7.22a4.43 4.43 0 0 1 1 2.2 2.81 2.81 0 0 0 -.1.31c-.06.17-.12.34-.17.51a2.4 2.4 0 0 1 -.25.51 1.55 1.55 0 0 0 .38-.49 3.33 3.33 0 0 0 .21-.52c0-.09 0-.18.08-.28a19.4 19.4 0 0 1 6-.67 4.74 4.74 0 0 1 -1.71 4.1l-.1.09c-.14.11-.29.21-.44.31l-.48.28a3 3 0 0 0 .57-.23 3.58 3.58 0 0 0 .48-.29l.18-.14a15.31 15.31 0 0 1 2.59.47c-1.59 2.87-6.41 4.3-11.17 3.45"/></clipPath><path d="m58.44 34.09a3.19 3.19 0 0 0 -.44-1.45c-.3-.64-.73-1.27-1.1-1.9a2.81 2.81 0 0 0 -1.1-1.2l-12-7a6.19 6.19 0 0 0 -5.62 0l-12 7a2.79 2.79 0 0 0 -1.07 1.14c-.4.7-.75 1.3-1.13 2a2.75 2.75 0 0 0 -.39 1.42v13.84a6.18 6.18 0 0 0 2.81 4.87l12.05 7a3.06 3.06 0 0 0 1.57.36h2a3.1 3.1 0 0 0 1.58-.36l12.05-7a6.18 6.18 0 0 0 2.81-4.87zm-18.56 20.56c0 2.41-1.72 3.38-3.81 2.17l-7.35-4.24a8.36 8.36 0 0 1 -3.79-6.58v-8.45c0-2.41 1.72-3.38 3.81-2.17l7.35 4.24a8.41 8.41 0 0 1 3.79 6.56zm-2.61-17-7.35-4.24c-2.1-1.21-2.11-3.18 0-4.39l7.3-4.24a8.35 8.35 0 0 1 7.57 0l7.33 4.22c2.1 1.21 2.11 3.18 0 4.39l-7.3 4.24a8.37 8.37 0 0 1 -7.55-.03zm16 15-7.27 4.17c-2.1 1.21-3.81.24-3.81-2.17v-8.45a8.41 8.41 0 0 1 3.79-6.56l7.35-4.24c2.1-1.21 3.81-.24 3.81 2.17v8.45a8.35 8.35 0 0 1 -3.82 6.56z" fill="url(#a)"/><path d="m57.1 46a8.35 8.35 0 0 1 -3.78 6.56l-7.32 4.26c-2.1 1.21-3.81.24-3.81-2.17v-8.45a8.41 8.41 0 0 1 3.79-6.56l7.35-4.24c2.1-1.21 3.81-.24 3.81 2.17z" fill="url(#b)" opacity=".15"/><g clip-path="url(#c)"><g clip-path="url(#d)" fill="#010101"><path d="m39.49 26.39a13.36 13.36 0 0 0 -1.39.39l1 .28.37-.67"/><path d="m36.42 31.92-.15.21-.27.37h.09l.34-.61m2.7-4.86-1-.28c-3.19 1-5 2.91-5 4.94l2.12.58.27-.37c.44-.6.92-1.2 1.42-1.79s.79-.9 1.24-1.34l1-1.74"/><path d="m35.23 32.3-2.12-.58a3.79 3.79 0 0 0 .48 1.75.92.92 0 0 0 .35.32l.21.11a.6.6 0 0 1 .09-.13q.46-.75 1-1.47m.85.23h-.09l-.59.75c-.18.22-.36.45-.55.67l-.12.12a2.18 2.18 0 0 0 .51 0l.84-1.53"/><path d="m40.16 26.25-.67.14-.37.67 1.84.5a5 5 0 0 0 -.8-1.31m7.23 1.57a20.73 20.73 0 0 0 -4.4.29l4.32 1.18a4.25 4.25 0 0 0 .08-1.47"/><path d="m47.31 29.29-4.31-1.18a15.75 15.75 0 0 0 -1.64.38c0 .1-.05.19-.08.28a3.33 3.33 0 0 1 -.21.52 1.55 1.55 0 0 1 -.38.49 2.4 2.4 0 0 0 .25-.51c0-.17.11-.34.17-.51a2.81 2.81 0 0 1 .1-.31 3.68 3.68 0 0 0 -.24-.89l-1.84-.5-1 1.74c.13-.14.27-.27.41-.4a14 14 0 0 1 -1 1.89c-.34.54-.7 1.07-1.09 1.6l-.34.61 1.73.47.59-.35c.44-.26.89-.51 1.35-.76l1.44-.78c1-.49 1.94-1 3-1.42a29.73 29.73 0 0 1 -2.45 1.73c-.63.41-1.28.81-1.93 1.21l-.71.41-.36.21 2.67.73.83-.19.6-.12c.76-.16 1.53-.3 2.33-.42-.87.32-1.78.59-2.69.86l-.28.08 2.9.79 1.59-2.95-.83-.1-.18.14a3.58 3.58 0 0 1 -.48.29 3 3 0 0 1 -.57.23l.48-.28c.15-.1.3-.2.44-.31l.1-.09a5.16 5.16 0 0 0 1.63-2.63"/><path d="m37.81 33-1.73-.47-.84 1.53h.08a1 1 0 0 0 .25.35l.18-.12 1-.67 1-.61m3.58 1-2.67-.73c-.52.3-1 .59-1.59.88l-.85.45-.2.11a2.34 2.34 0 0 0 .4.11.46.46 0 0 0 -.07.46l.19-.06 1.55-.43 1.23-.31q1-.26 2-.48m3.69 1-2.9-.79c-.82.24-1.66.46-2.5.67s-1.88.46-2.84.66h-.21a1 1 0 0 0 .16.12 1.76 1.76 0 0 0 .52.18 14.49 14.49 0 0 0 7.76-.62l.13-.25"/><path d="m48.48 32.41a15.29 15.29 0 0 0 -1.76-.41l-1.64 3 .27.08a6.53 6.53 0 0 0 3.13-2.65"/><path d="m45.35 35.06-.27-.06-.13.25.4-.17"/></g></g></svg>